<?xml version="1.0" standalone="no"?>
<!DOCTYPE svg PUBLIC "-//W3C//DTD SVG 20010904//EN"
        "http://www.w3.org/TR/2001/REC-SVG-20010904/DTD/svg10.dtd">
<svg xmlns="http://www.w3.org/2000/svg"
     width="1280.000000pt" height="194.000000pt" viewBox="0 0 1280.000000 194.000000"
     preserveAspectRatio="xMidYMid meet">

    <g transform="translate(0.000000,194.000000) scale(0.100000,-0.100000)"
       fill="none" stroke="#000000" stroke-width="10">
        <path d="M172 1838 c-13 -13 -18 -252 -6 -282 6 -14 129 -16 1299 -16 1218 0
1293 -1 1307 -17 9 -10 34 -52 57 -95 23 -42 48 -81 55 -87 9 -8 863 -12 2984
-14 l2971 -2 22 -22 c29 -29 29 -77 0 -106 l-22 -22 -3003 -3 c-1832 -1 -3014
1 -3029 7 -14 6 -37 33 -57 68 -18 32 -43 73 -57 91 l-24 32 -1239 0 c-1113 0
-1240 -2 -1254 -16 -23 -23 -23 -265 0 -288 14 -15 441 -16 4547 -16 2969 0
4544 4 4568 10 19 6 46 22 60 36 23 24 24 34 29 171 4 128 7 146 24 159 24 17
37 18 58 2 12 -10 17 -36 20 -113 3 -85 7 -106 26 -132 29 -41 77 -56 167 -51
134 6 154 40 154 255 1 115 4 145 17 157 19 20 35 20 60 2 17 -13 19 -31 24
-180 l5 -166 33 -32 c31 -31 37 -33 116 -36 97 -4 142 11 169 57 15 25 17 59
17 236 0 123 4 214 10 226 11 19 54 26 77 11 8 -5 13 -72 15 -227 3 -210 4
-221 26 -252 29 -41 77 -56 167 -51 129 6 153 42 155 228 0 90 5 124 19 156
28 62 84 119 144 145 l52 24 790 3 c626 2 795 -1 815 -11 34 -17 39 -60 8 -81
-20 -14 -104 -16 -800 -16 l-778 0 -40 -25 c-125 -79 -95 -265 48 -305 24 -6
304 -10 795 -10 504 0 765 -3 778 -10 23 -13 25 -53 3 -74 -14 -14 -99 -16
-790 -16 -828 0 -804 1 -862 -49 -75 -66 -65 -198 20 -258 l41 -28 787 -5
c647 -4 790 -7 803 -19 21 -16 22 -54 3 -70 -10 -8 -217 -11 -772 -11 -424 0
-776 -4 -798 -10 -76 -17 -126 -73 -133 -147 -6 -64 17 -116 69 -153 l41 -30
781 0 c700 0 784 -2 804 -16 31 -21 26 -64 -8 -81 -20 -10 -189 -13 -815 -11
l-790 3 -50 23 c-65 30 -112 75 -141 137 -21 43 -24 66 -24 165 -2 185 -25
220 -152 227 -88 6 -143 -10 -172 -50 -20 -26 -21 -44 -24 -248 -4 -211 -5
-220 -25 -234 -28 -19 -33 -19 -57 5 -19 19 -20 33 -20 226 0 286 -8 299 -176
299 -92 0 -94 0 -126 -33 l-33 -32 -5 -166 c-5 -149 -7 -167 -24 -180 -25 -18
-41 -18 -60 2 -13 12 -16 42 -17 157 0 212 -20 245 -146 254 -91 7 -146 -9
-175 -49 -19 -27 -23 -48 -26 -133 -2 -55 -9 -106 -14 -112 -14 -17 -40 -16
-64 1 -17 13 -20 31 -24 159 -5 137 -6 147 -29 171 -14 14 -41 30 -60 36 -24
6 -1599 10 -4568 10 -4106 0 -4533 -1 -4547 -16 -13 -12 -16 -41 -16 -148 0
-89 4 -136 12 -144 9 -9 301 -12 1254 -12 1092 0 1244 2 1258 15 8 8 33 49 56
90 23 41 50 80 60 85 13 7 1033 9 3029 8 l3010 -3 22 -22 c29 -29 29 -77 0
-106 l-22 -22 -2977 -5 -2977 -5 -47 -80 c-25 -44 -54 -90 -63 -103 l-16 -22
-1293 0 c-1171 0 -1294 -2 -1300 -16 -12 -30 -7 -269 6 -282 9 -9 313 -12
1306 -12 l1295 0 51 33 51 32 2870 5 2870 5 49 24 c33 17 124 97 280 249 127
123 238 227 247 232 9 5 25 4 40 -3 22 -12 24 -19 29 -103 8 -133 28 -156 167
-188 80 -18 103 -13 145 28 25 26 26 33 30 141 1 63 8 118 13 123 19 19 51 22
71 8 17 -13 20 -31 24 -174 5 -153 6 -162 29 -186 29 -31 134 -66 195 -66 23
0 52 7 64 16 45 31 52 62 52 233 0 160 0 161 25 177 23 15 27 15 49 0 25 -16
25 -16 28 -228 3 -184 5 -217 21 -239 26 -39 131 -79 205 -79 37 0 87 25 99
49 4 9 10 120 13 248 3 158 9 236 17 244 15 15 61 15 76 0 7 -7 14 -61 18
-124 3 -62 13 -131 21 -155 34 -92 113 -176 207 -221 l56 -26 846 -3 845 -2
34 23 c19 12 45 38 58 57 20 29 23 44 20 93 -5 64 -25 98 -78 135 l-33 22
-776 0 c-603 0 -782 3 -801 13 -34 17 -39 60 -8 81 20 14 104 16 798 16 l775
0 40 23 c129 73 102 274 -41 308 -22 4 -380 9 -797 9 -503 0 -765 3 -778 10
-26 14 -26 66 0 80 13 7 276 10 784 10 544 0 774 3 798 11 40 14 85 53 105 91
36 69 1 174 -71 215 l-40 23 -775 0 c-686 0 -778 2 -798 16 -24 17 -29 53 -10
72 9 9 195 12 772 12 421 0 779 5 800 10 45 10 81 34 110 74 16 21 21 42 21
91 0 69 -15 99 -69 139 -27 21 -35 21 -879 21 l-852 0 -55 -26 c-98 -47 -181
-138 -212 -232 -6 -18 -13 -83 -17 -146 -6 -95 -10 -115 -26 -127 -24 -18 -36
-18 -61 0 -18 13 -19 32 -24 248 -3 128 -9 240 -13 249 -4 8 -22 23 -39 33
-38 23 -106 18 -190 -13 -90 -35 -93 -41 -96 -276 -1 -110 -4 -210 -7 -221 -6
-28 -43 -37 -72 -18 -22 14 -23 19 -23 170 0 174 -9 213 -59 238 -16 9 -44 16
-62 16 -54 0 -163 -38 -190 -66 -23 -24 -24 -33 -29 -186 -4 -143 -7 -161 -24
-174 -25 -18 -37 -18 -62 0 -16 13 -19 29 -22 130 -4 109 -5 116 -30 142 -40
39 -62 44 -134 29 -148 -31 -170 -55 -178 -189 -5 -84 -7 -91 -29 -103 -15 -7
-31 -8 -40 -3 -9 5 -118 108 -243 229 -153 148 -244 229 -280 248 l-53 28
-2870 5 -2870 5 -51 33 -51 32 -1294 0 c-994 0 -1298 -3 -1307 -12z"/>
    </g>
</svg>
